<?xml version="1.0" encoding="utf-8"?>
<!-- Generator: Adobe Illustrator 16.0.4, SVG Export Plug-In . SVG Version: 6.00 Build 0)  -->
<!DOCTYPE svg PUBLIC "-//W3C//DTD SVG 1.1//EN" "http://www.w3.org/Graphics/SVG/1.1/DTD/svg11.dtd">
<svg version="1.1" id="Ebene_1" xmlns="http://www.w3.org/2000/svg" xmlns:xlink="http://www.w3.org/1999/xlink" x="0px" y="0px"
	 width="878.74px" height="595.276px" viewBox="0 0 878.74 595.276" enable-background="new 0 0 878.74 595.276"
	 xml:space="preserve">
<g>
	<defs>
		<rect id="SVGID_1_" width="878.74" height="595.276"/>
	</defs>
	<clipPath id="SVGID_2_">
		<use xlink:href="#SVGID_1_"  overflow="visible"/>
	</clipPath>
	<path clip-path="url(#SVGID_2_)" d="M449.901,567.361h28.49v-79.603h-28.49V567.361z M139.757,487.757h-28.49v79.604h28.49v-42.179
		h45.032v-22.087h-45.032V487.757z M0,480.671h42.102l-12.846-22.822H0V480.671z M67.549,480.671h26.805v-22.822H67.549V480.671z
		 M65.099,567.361h29.256v-79.604H67.549v37.578h-0.306l-21.152-37.578H0v79.604h26.806v-68.253h0.306L65.099,567.361z
		 M111.267,480.671h80.569v-22.822h-80.569V480.671z M201.011,480.671h92.867c-8.756-14.623-24.588-22.822-45.843-22.822h-47.024
		V480.671z M301.646,512.145c0-9.165-1.479-17.333-4.282-24.388h-34.382c6.648,4.795,10.174,12.825,10.174,24.234
		c0,21.933-8.578,30.368-30.175,30.828h-13.479v-55.062h-28.491v79.604h47.024C281.274,567.361,301.646,548.036,301.646,512.145
		 M314.114,480.671h28.49v-22.822h-28.49V480.671z M314.114,567.361h28.49v-79.603h-28.49V567.361z M399.294,521.501h-27.265
		l26.958-34.51h0.307V521.501z M424.567,543.587h13.939v-22.086h-13.939v-61.045H399.6l-47.79,58.744v24.387h46.718v23.773h26.039
		V543.587z M478.393,457.849h-28.49v22.822h28.49V457.849z M546.876,567.361h26.04v-51.074c0-11.503-2.146-30.829-28.645-30.829
		c-9.496,0-20.218,5.061-24.967,13.189h-0.306v-10.889h-25.274v79.603h26.04v-43.405c0-8.743,4.289-17.025,14.091-17.025
		c14.246,0,13.021,11.043,13.021,21.934V567.361z M639.255,525.49c0,9.969-4.748,18.558-15.777,18.558
		c-10.722,0-15.01-9.356-15.01-18.712c0-9.816,3.676-19.939,15.164-19.939C635.272,505.396,639.255,515.367,639.255,525.49
		 M663.916,557.699v-69.94h-24.967v9.969h-0.307c-4.596-8.129-11.795-12.27-21.291-12.27c-22.517,0-34.924,17.792-34.924,38.958
		c0,22.393,10.875,39.57,34.924,39.57c8.424,0,16.389-4.294,21.137-11.655h0.308v7.515c0,9.816-1.227,18.559-13.633,18.559
		c-3.982,0-7.199-0.46-9.497-1.687c-2.45-1.227-3.829-3.374-4.442-6.902h-26.039c3.064,21.319,20.525,25.46,39.06,25.46
		C661.465,595.275,663.916,570.735,663.916,557.699"/>
	<path clip-path="url(#SVGID_2_)" fill="#FFA600" d="M544.068,106.739c2.712-5.242,4.27-11.179,4.27-17.488
		c0-21.07-17.08-38.15-38.15-38.15c-21.069,0-38.149,17.08-38.149,38.15c0,21.069,17.08,38.15,38.149,38.15
		c12.346,0,23.288-5.89,30.261-14.983l264.937,152.941c0.87-2.09,1.915-4.084,3.126-5.967L544.068,106.739z"/>
	<path clip-path="url(#SVGID_2_)" fill="#60017D" d="M662.859,419.646c0,21.069,17.08,38.15,38.15,38.15s38.148-17.081,38.148-38.15
		s-17.078-38.15-38.148-38.15c-6.336,0-12.299,1.569-17.557,4.304L530.76,121.331c-1.881,1.214-3.891,2.23-5.979,3.102l152.998,265
		C668.721,396.408,662.859,407.329,662.859,419.646"/>
	<path clip-path="url(#SVGID_2_)" fill="#FF0000" d="M878.68,280.005c0-21.07-17.081-38.15-38.149-38.15
		c-20.318,0-36.88,15.896-38.038,35.923l-305.378,0.008c0.049,0.786,0.131,1.564,0.131,2.362c0,1.479-0.104,2.932-0.269,4.367
		l305.692-0.008c2.23,18.944,18.317,33.647,37.861,33.647C861.599,318.155,878.68,301.075,878.68,280.005"/>
	<path clip-path="url(#SVGID_2_)" fill="#FFFF00" d="M755.112,105.64L490.438,258.429c-6.888-9.921-18.349-16.43-31.342-16.43
		c-21.07,0-38.15,17.081-38.15,38.15c0,21.069,17.08,38.149,38.15,38.149c21.068,0,38.149-17.08,38.149-38.149
		c0-5.669-1.27-11.03-3.487-15.866l264.77-152.845C757.222,109.619,756.086,107.679,755.112,105.64"/>
	<path clip-path="url(#SVGID_2_)" fill="#819CC9" d="M802.561,175.407l-305.435,0.007c-1.227-19.962-17.759-35.785-38.031-35.785
		c-21.07,0-38.149,17.08-38.149,38.149c0,21.07,17.08,38.15,38.149,38.15c19.592,0,35.715-14.774,37.883-33.785l305.718-0.007
		c-0.167-1.429-0.255-2.883-0.255-4.357C802.44,176.978,802.511,176.196,802.561,175.407"/>
	<path clip-path="url(#SVGID_2_)" fill="#FF5A00" d="M753.94,353.687c-1.641,4.255-2.575,8.861-2.575,13.694
		c0,21.069,17.08,38.149,38.149,38.149c21.07,0,38.15-17.08,38.15-38.149c0-21.07-17.08-38.15-38.15-38.15
		c-13.831,0-25.906,7.386-32.597,18.404l-263.932-152.38c-1.036,2.007-2.246,3.907-3.608,5.686L753.94,353.687z"/>
	<path clip-path="url(#SVGID_2_)" fill="#F50153" d="M636.827,38.15c0-21.069-17.08-38.15-38.149-38.15
		c-21.07,0-38.15,17.081-38.15,38.15c0,21.07,17.08,38.15,38.15,38.15c5.194,0,10.144-1.047,14.657-2.928l152.512,264.185
		c1.756-1.402,3.636-2.641,5.626-3.717L619.286,70.223C629.828,63.434,636.827,51.62,636.827,38.15"/>
	<path clip-path="url(#SVGID_2_)" fill="#0A51A1" d="M560.527,419.646c0,21.069,17.08,38.15,38.15,38.15
		c21.069,0,38.149-17.081,38.149-38.15c0-20.33-15.915-36.897-35.959-38.039V76.19c-0.729,0.042-1.452,0.11-2.19,0.11
		c-1.538,0-3.048-0.118-4.538-0.295V381.79C575.212,384.038,560.527,400.115,560.527,419.646"/>
	<path clip-path="url(#SVGID_2_)" fill="#A60000" d="M739.159,38.15c0-21.069-17.08-38.15-38.15-38.15
		C679.94,0,662.86,17.081,662.86,38.15c0,19.491,14.625,35.538,33.496,37.838v305.795c1.524-0.188,3.077-0.287,4.652-0.287
		c0.701,0,1.384,0.068,2.076,0.105V76.195C723.184,75.111,739.159,58.519,739.159,38.15"/>
	<path clip-path="url(#SVGID_2_)" fill="#005824" d="M827.666,89.3c0-21.069-17.08-38.15-38.15-38.15s-38.15,17.081-38.15,38.15
		c0,12.71,6.24,23.936,15.797,30.87L614.312,384.911c2.061,0.927,4.018,2.036,5.865,3.298l152.765-264.588
		c5.018,2.429,10.625,3.829,16.574,3.829C810.586,127.45,827.666,110.369,827.666,89.3"/>
	<path clip-path="url(#SVGID_2_)" fill="#80C41C" d="M678.662,69l-152.854,264.78c-4.771-2.146-10.046-3.367-15.615-3.367
		c-21.07,0-38.15,17.08-38.15,38.149c0,21.07,17.08,38.15,38.15,38.15c21.069,0,38.149-17.08,38.149-38.15
		c0-13.094-6.603-24.64-16.654-31.51L684.441,72.453C682.406,71.468,680.476,70.314,678.662,69"/>
	<path clip-path="url(#SVGID_2_)" fill="#13007C" d="M878.74,177.778c0-21.07-17.08-38.15-38.15-38.15
		c-21.069,0-38.149,17.08-38.149,38.15c0,5.852,1.355,11.374,3.711,16.331L541.576,346.914c1.271,1.84,2.343,3.818,3.281,5.872
		l264.699-152.875c6.92,9.683,18.226,16.016,31.033,16.016C861.66,215.927,878.74,198.847,878.74,177.778"/>
</g>
</svg>
